# xmcd CD database file
#
# Track frame offsets:
#	150
#	22887
#	57730
#	77830
#	108958
#	138286
#	171428
#
# Disc length: 2636 seconds
#
# Revision: 0
# Processed by: cddbd v1.5.2PL0 Copyright (c) Steve Scherf et al.
# Submitted via: CDex 1.51
#
DISCID=580a4a07
DTITLE=D¿em - Lunatycy - Czyli Tzw. Przeboje Calkiem Live 
DYEAR=1988
DGENRE=Blues
TTITLE0=Dzien, W Ktorym Peklo Niebo
TTITLE1=Jesiony
TTITLE2=Kim Jestem - Jestem Sobie
TTITLE3=Nieudany Skok
TTITLE4=Paw
TTITLE5=Skazany Na Bluesa
TTITLE6=Wokol Sami Lunatycy
EXTD=YEAR: 1988
EXTT0=
EXTT1=
EXTT2=
EXTT3=
EXTT4=
EXTT5=
EXTT6=
PLAYORDER=
